<svg width="68" height="68" viewBox="0 0 68 68" fill="none" xmlns="http://www.w3.org/2000/svg">
<g clip-path="url(#clip0_42_319)">
<path d="M33.727 1.48314e-08C27.0564 -0.000197766 20.5355 1.97771 14.9889 5.68361C9.4424 9.3895 5.11938 14.6569 2.56654 20.8198C0.0137 26.9826 -0.654286 33.7641 0.647046 40.3066C1.94838 46.8491 5.16059 52.8587 9.87745 57.5756C14.5943 62.2925 20.604 65.5047 27.1465 66.806C33.689 68.1073 40.4704 67.4393 46.6333 64.8865C52.7961 62.3336 58.0635 58.0106 61.7694 52.4641C65.4753 46.9176 67.4532 40.3967 67.453 33.726C67.4528 24.7814 63.8994 16.2032 57.5746 9.87841C51.2498 3.55362 42.6716 0.000265217 33.727 1.48314e-08ZM51.674 36.539H15.774C15.3096 36.5387 14.8498 36.447 14.4208 36.269C13.9918 36.091 13.6021 35.8302 13.2739 35.5016C12.9458 35.1729 12.6855 34.7828 12.5081 34.3536C12.3307 33.9244 12.2396 33.4644 12.24 33C12.24 27.3013 14.5038 21.836 18.5334 17.8064C22.563 13.7768 28.0283 11.513 33.727 11.513C39.4257 11.513 44.891 13.7768 48.9206 17.8064C52.9502 21.836 55.214 27.3013 55.214 33C55.214 33.9378 54.8415 34.8372 54.1784 35.5003C53.5152 36.1635 52.6158 36.536 51.678 36.536" fill="white"/>
</g>
<defs>
<clipPath id="clip0_42_319">
<rect width="67.453" height="67.453" fill="white"/>
</clipPath>
</defs>
</svg>
