<svg width="38" height="39" viewBox="0 0 38 39" fill="none" xmlns="http://www.w3.org/2000/svg">
<g filter="url(#filter0_i_1117_3220)">
<rect width="38" height="38" rx="6" fill="#5E6CF3" fill-opacity="0.2"/>
</g>
<rect x="0.5" y="0.5" width="37" height="37" rx="5.5" stroke="url(#paint0_linear_1117_3220)" stroke-opacity="0.1"/>
<g filter="url(#filter1_di_1117_3220)">
<path d="M25.9419 13.2165C24.6473 12.6487 23.263 12.236 21.8157 12.001C21.638 12.3022 21.4304 12.7074 21.2872 13.0298C19.7487 12.8129 18.2245 12.8129 16.7143 13.0298C16.5712 12.7074 16.3588 12.3022 16.1795 12.001C14.7307 12.236 13.3448 12.6502 12.0502 13.2196C9.43887 16.9189 8.73099 20.5264 9.08493 24.0827C10.8169 25.2952 12.4953 26.0318 14.1455 26.5138C14.5529 25.9881 14.9163 25.4293 15.2293 24.8404C14.6331 24.628 14.0621 24.3659 13.5226 24.0616C13.6657 23.9622 13.8057 23.8583 13.941 23.7513C17.2318 25.1943 20.8074 25.1943 24.0589 23.7513C24.1958 23.8583 24.3358 23.9622 24.4774 24.0616C23.9362 24.3674 23.3637 24.6295 22.7675 24.8419C23.0805 25.4293 23.4423 25.9896 23.8513 26.5153C25.503 26.0333 27.183 25.2967 28.915 24.0827C29.3303 19.9601 28.2056 16.3857 25.9419 13.2165ZM15.6776 21.8956C14.6898 21.8956 13.8796 21.031 13.8796 19.9781C13.8796 18.9253 14.6725 18.0592 15.6776 18.0592C16.6829 18.0592 17.493 18.9238 17.4757 19.9781C17.4772 21.031 16.6829 21.8956 15.6776 21.8956ZM22.3223 21.8956C21.3344 21.8956 20.5243 21.031 20.5243 19.9781C20.5243 18.9253 21.3171 18.0592 22.3223 18.0592C23.3275 18.0592 24.1376 18.9238 24.1203 19.9781C24.1203 21.031 23.3275 21.8956 22.3223 21.8956Z" fill="#5865F2"/>
</g>
<defs>
<filter id="filter0_i_1117_3220" x="0" y="0" width="38" height="39" filterUnits="userSpaceOnUse" color-interpolation-filters="sRGB">
<feFlood flood-opacity="0" result="BackgroundImageFix"/>
<feBlend mode="normal" in="SourceGraphic" in2="BackgroundImageFix" result="shape"/>
<feColorMatrix in="SourceAlpha" type="matrix" values="0 0 0 0 0 0 0 0 0 0 0 0 0 0 0 0 0 0 127 0" result="hardAlpha"/>
<feOffset dy="1"/>
<feGaussianBlur stdDeviation="1"/>
<feComposite in2="hardAlpha" operator="arithmetic" k2="-1" k3="1"/>
<feColorMatrix type="matrix" values="0 0 0 0 1 0 0 0 0 1 0 0 0 0 1 0 0 0 0.1 0"/>
<feBlend mode="normal" in2="shape" result="effect1_innerShadow_1117_3220"/>
</filter>
<filter id="filter1_di_1117_3220" x="3" y="7" width="32" height="36" filterUnits="userSpaceOnUse" color-interpolation-filters="sRGB">
<feFlood flood-opacity="0" result="BackgroundImageFix"/>
<feColorMatrix in="SourceAlpha" type="matrix" values="0 0 0 0 0 0 0 0 0 0 0 0 0 0 0 0 0 0 127 0" result="hardAlpha"/>
<feOffset dy="8"/>
<feGaussianBlur stdDeviation="2"/>
<feComposite in2="hardAlpha" operator="out"/>
<feColorMatrix type="matrix" values="0 0 0 0 0 0 0 0 0 0 0 0 0 0 0 0 0 0 0.25 0"/>
<feBlend mode="normal" in2="BackgroundImageFix" result="effect1_dropShadow_1117_3220"/>
<feBlend mode="normal" in="SourceGraphic" in2="effect1_dropShadow_1117_3220" result="shape"/>
<feColorMatrix in="SourceAlpha" type="matrix" values="0 0 0 0 0 0 0 0 0 0 0 0 0 0 0 0 0 0 127 0" result="hardAlpha"/>
<feOffset dy="1"/>
<feGaussianBlur stdDeviation="1"/>
<feComposite in2="hardAlpha" operator="arithmetic" k2="-1" k3="1"/>
<feColorMatrix type="matrix" values="0 0 0 0 1 0 0 0 0 1 0 0 0 0 1 0 0 0 0.25 0"/>
<feBlend mode="normal" in2="shape" result="effect2_innerShadow_1117_3220"/>
</filter>
<linearGradient id="paint0_linear_1117_3220" x1="19" y1="0" x2="19" y2="38" gradientUnits="userSpaceOnUse">
<stop stop-color="white"/>
<stop offset="1" stop-color="white" stop-opacity="0"/>
</linearGradient>
</defs>
</svg>
