<svg width="43" height="42" viewBox="0 0 43 42" fill="none" xmlns="http://www.w3.org/2000/svg">
<path d="M35.5263 1H7.47368C3.89837 1 1 3.89837 1 7.47368V35.5263C1 39.1016 3.89837 42 7.47368 42H35.5263C39.1016 42 42 39.1016 42 35.5263V7.47368C42 3.89837 39.1016 1 35.5263 1Z" fill="#542800" fill-opacity="0.47"/>
<path d="M35.9054 1H7.09459C3.72864 1 1 3.65684 1 6.93421V34.9868C1 38.2642 3.72864 40.9211 7.09459 40.9211H35.9054C39.2714 40.9211 42 38.2642 42 34.9868V6.93421C42 3.65684 39.2714 1 35.9054 1Z" stroke="url(#paint0_linear_2_27)" stroke-opacity="0.15"/>
<path fill-rule="evenodd" clip-rule="evenodd" d="M31.5851 20.0199L21.9795 10.415C21.4267 9.86168 20.5295 9.86168 19.976 10.415L17.9814 12.4096L20.5116 14.9398C21.0997 14.7412 21.7739 14.8744 22.2426 15.3432C22.7136 15.8149 22.8459 16.4949 22.6424 17.0849L25.0809 19.5234C25.6708 19.3202 26.3515 19.4517 26.8227 19.9236C27.4812 20.5819 27.4812 21.6489 26.8227 22.3076C26.164 22.9664 25.097 22.9664 24.4381 22.3076C23.9427 21.8118 23.8203 21.0842 24.0711 20.474L21.797 18.1999L21.7968 24.1844C21.9573 24.2641 22.1089 24.3701 22.2426 24.5033C22.9011 25.1616 22.9011 26.2286 22.2426 26.8878C21.5839 27.5463 20.5165 27.5463 19.8587 26.8878C19.2002 26.2286 19.2002 25.1616 19.8587 24.5033C20.0214 24.3409 20.2097 24.218 20.4105 24.1354V18.0951C20.2097 18.013 20.0216 17.8909 19.8587 17.7272C19.3597 17.229 19.2398 16.4968 19.4954 15.8842L17.0014 13.3896L10.4151 19.9755C9.86162 20.5293 9.86162 21.4265 10.4151 21.9798L20.0207 31.585C20.5737 32.1383 21.4707 32.1383 22.0244 31.585L31.5851 22.0245C32.1383 21.471 32.1383 20.5732 31.5851 20.0199" fill="#DE4C36"/>
<defs>
<linearGradient id="paint0_linear_2_27" x1="21.5" y1="0.460526" x2="21.5" y2="41.4605" gradientUnits="userSpaceOnUse">
<stop stop-color="white"/>
<stop offset="1" stop-color="white" stop-opacity="0"/>
</linearGradient>
</defs>
</svg>
