<svg width="43" height="42" viewBox="0 0 43 42" fill="none" xmlns="http://www.w3.org/2000/svg">
<path d="M35.5263 1H7.47368C3.89837 1 1 3.89837 1 7.47368V35.5263C1 39.1016 3.89837 42 7.47368 42H35.5263C39.1016 42 42 39.1016 42 35.5263V7.47368C42 3.89837 39.1016 1 35.5263 1Z" fill="white" fill-opacity="0.47"/>
<path d="M35.9054 1H7.09459C3.72864 1 1 3.65684 1 6.93421V34.9868C1 38.2642 3.72864 40.9211 7.09459 40.9211H35.9054C39.2714 40.9211 42 38.2642 42 34.9868V6.93421C42 3.65684 39.2714 1 35.9054 1Z" stroke="url(#paint0_linear_2_27)" stroke-opacity="0.15"/>
<path fill-rule="evenodd" clip-rule="evenodd" d="M21.0001 10C14.9257 10 10 15.0494 10 21.2785C10 26.2616 13.1519 30.4893 17.5225 31.9806C18.0723 32.085 18.2741 31.736 18.2741 31.4381C18.2741 31.1691 18.2639 30.2807 18.2592 29.3382C15.1989 30.0205 14.5532 28.0075 14.5532 28.0075C14.0528 26.7039 13.3318 26.3572 13.3318 26.3572C12.3338 25.6572 13.4071 25.6716 13.4071 25.6716C14.5117 25.7512 15.0933 26.8339 15.0933 26.8339C16.0744 28.5581 17.6666 28.0596 18.2943 27.7714C18.3931 27.0425 18.6781 26.5449 18.9927 26.2633C16.5495 25.9781 13.981 25.011 13.981 20.6894C13.981 19.4581 14.4107 18.452 15.1144 17.6621C15.0002 17.378 14.6237 16.2309 15.221 14.6774C15.221 14.6774 16.1447 14.3743 18.2468 15.8335C19.1242 15.5836 20.0653 15.4583 21.0001 15.454C21.9349 15.4583 22.8767 15.5836 23.7558 15.8335C25.8553 14.3743 26.7777 14.6774 26.7777 14.6774C27.3765 16.2309 26.9998 17.378 26.8856 17.6621C27.5909 18.452 28.0177 19.4581 28.0177 20.6894C28.0177 25.0213 25.4444 25.9751 22.9949 26.2543C23.3894 26.6043 23.741 27.2907 23.741 28.343C23.741 29.852 23.7283 31.0666 23.7283 31.4381C23.7283 31.7382 23.9263 32.0899 24.4838 31.9791C28.8521 30.4861 32 26.2599 32 21.2785C32 15.0494 27.075 10 21.0001 10ZM14.1199 26.0664C14.0957 26.1225 14.0097 26.1393 13.9314 26.1008C13.8516 26.064 13.8068 25.9876 13.8326 25.9314C13.8563 25.8737 13.9425 25.8576 14.0221 25.8963C14.102 25.9331 14.1476 26.0102 14.1199 26.0664ZM14.661 26.5615C14.6085 26.6113 14.506 26.5882 14.4364 26.5094C14.3644 26.4307 14.3509 26.3256 14.4041 26.275C14.4582 26.2251 14.5577 26.2484 14.6298 26.3271C14.7018 26.4066 14.7158 26.511 14.661 26.5615ZM15.0322 27.1948C14.9648 27.2428 14.8546 27.1978 14.7864 27.0975C14.719 26.9972 14.719 26.8769 14.7879 26.8288C14.8562 26.7806 14.9648 26.8239 15.0338 26.9235C15.101 27.0254 15.101 27.1457 15.0322 27.1948ZM15.66 27.9283C15.5997 27.9965 15.4712 27.9782 15.3773 27.8852C15.2811 27.7942 15.2543 27.6652 15.3148 27.597C15.3758 27.5287 15.5049 27.5479 15.5997 27.6402C15.6951 27.7309 15.7243 27.8609 15.66 27.9283ZM16.4713 28.176C16.4447 28.2643 16.321 28.3045 16.1964 28.2669C16.072 28.2283 15.9906 28.1248 16.0157 28.0355C16.0416 27.9466 16.1658 27.9048 16.2913 27.9449C16.4156 27.9834 16.4972 28.0861 16.4713 28.176ZM17.3947 28.281C17.3978 28.374 17.2921 28.4512 17.1613 28.4528C17.0298 28.4558 16.9234 28.3806 16.922 28.289C16.922 28.1951 17.0252 28.1187 17.1568 28.1165C17.2876 28.1139 17.3947 28.1886 17.3947 28.281ZM18.3017 28.2454C18.3174 28.3361 18.2265 28.4293 18.0966 28.4542C17.9689 28.4781 17.8507 28.422 17.8345 28.332C17.8187 28.239 17.9112 28.1458 18.0387 28.1217C18.1688 28.0986 18.2852 28.1531 18.3017 28.2454Z" fill="#161614"/>
<defs>
<linearGradient id="paint0_linear_2_27" x1="21.5" y1="0.460526" x2="21.5" y2="41.4605" gradientUnits="userSpaceOnUse">
<stop stop-color="white"/>
<stop offset="1" stop-color="white" stop-opacity="0"/>
</linearGradient>
</defs>
</svg>
