<svg width="38" height="38" viewBox="0 0 38 38" fill="none" xmlns="http://www.w3.org/2000/svg">
<g clip-path="url(#clip0_8_159)">
<path d="M32 0H6C2.68629 0 0 2.68629 0 6V32C0 35.3137 2.68629 38 6 38H32C35.3137 38 38 35.3137 38 32V6C38 2.68629 35.3137 0 32 0Z" fill="#7600A0" fill-opacity="0.2"/>
<path d="M32 0.5H6C2.96243 0.5 0.5 2.96243 0.5 6V32C0.5 35.0376 2.96243 37.5 6 37.5H32C35.0376 37.5 37.5 35.0376 37.5 32V6C37.5 2.96243 35.0376 0.5 32 0.5Z" stroke="url(#paint0_linear_8_159)" stroke-opacity="0.1"/>
<path fill-rule="evenodd" clip-rule="evenodd" d="M20.7024 11.292L24.8149 13.6664C24.9307 13.5437 25.0659 13.4354 25.2194 13.3463C26.0723 12.856 27.1601 13.1471 27.6555 14C28.1458 14.8529 27.8547 15.9408 27.0018 16.4362C26.8495 16.5237 26.6896 16.5863 26.5268 16.6253V21.3759C26.6879 21.415 26.846 21.4772 26.9967 21.5638C27.8547 22.0592 28.1458 23.1471 27.6504 24C27.1601 24.8529 26.0672 25.144 25.2143 24.6537C25.0445 24.5561 24.8969 24.4346 24.7734 24.2959L20.686 26.6558C20.7445 26.8323 20.7761 27.0212 20.7761 27.2176C20.7761 28.1982 19.9793 29 18.9937 29C18.008 29 17.2112 28.2033 17.2112 27.2176C17.2112 27.0424 17.2364 26.8731 17.2833 26.7133L13.172 24.3395C13.0574 24.4597 12.924 24.566 12.773 24.6537C11.915 25.144 10.8272 24.8529 10.3369 24C9.84656 23.1471 10.1377 22.0592 10.9906 21.5638C11.1414 21.4772 11.2995 21.4149 11.4605 21.3758V16.6253C11.2977 16.5863 11.1378 16.5237 10.9855 16.4362C10.1326 15.9459 9.84146 14.8529 10.3318 14C10.822 13.1471 11.915 12.856 12.7679 13.3463C12.9205 13.4349 13.0551 13.5425 13.1705 13.6644L17.2841 11.2893C17.2367 11.1287 17.2112 10.9586 17.2112 10.7824C17.2112 9.79673 18.008 9 18.9937 9C19.9793 9 20.7761 9.79673 20.7761 10.7824C20.7761 10.9596 20.7504 11.1306 20.7024 11.292ZM20.274 12.0235L24.3962 14.4036C24.2688 14.8511 24.3155 15.3473 24.5657 15.7824C24.8166 16.2189 25.2254 16.5083 25.679 16.6211V21.3777C25.6559 21.3833 25.6329 21.3895 25.61 21.3961L20.2261 12.0711C20.2423 12.0555 20.2583 12.0397 20.274 12.0235ZM17.7623 12.0721L12.3785 21.397C12.3552 21.3902 12.3318 21.3839 12.3083 21.3781V16.6211C12.7619 16.5083 13.1707 16.2189 13.4216 15.7824C13.6722 15.3465 13.7187 14.8491 13.5903 14.4009L17.7114 12.0215C17.7281 12.0387 17.745 12.0556 17.7623 12.0721ZM19.4917 12.4946L24.8743 21.8173C24.7538 21.9322 24.6477 22.066 24.5606 22.2176C24.4739 22.3682 24.4117 22.5264 24.3727 22.6874H13.6147C13.5757 22.5265 13.5134 22.3684 13.4267 22.2176C13.3393 22.067 13.2333 21.9339 13.1135 21.8195L18.4971 12.495C18.6547 12.5405 18.8213 12.5649 18.9937 12.5649C19.1666 12.5649 19.3337 12.5403 19.4917 12.4946ZM20.3118 26.0167L24.4073 23.6522C24.395 23.6136 24.384 23.5746 24.3744 23.5352H13.6125C13.6068 23.5583 13.6006 23.5813 13.594 23.6042L17.7095 25.9804C18.0336 25.6441 18.4888 25.4351 18.9937 25.4351C19.5164 25.4351 19.986 25.6592 20.3118 26.0167Z" fill="#E535AB"/>
</g>
<defs>
<linearGradient id="paint0_linear_8_159" x1="19" y1="-1.33909e-08" x2="19" y2="38" gradientUnits="userSpaceOnUse">
<stop stop-color="white"/>
<stop offset="1" stop-color="white" stop-opacity="0"/>
</linearGradient>
<clipPath id="clip0_8_159">
<rect width="38" height="38" fill="white"/>
</clipPath>
</defs>
</svg>
