<svg width="43" height="42" viewBox="0 0 43 42" fill="none" xmlns="http://www.w3.org/2000/svg">
<path d="M35.5263 1H7.47368C3.89837 1 1 3.89837 1 7.47368V35.5263C1 39.1016 3.89837 42 7.47368 42H35.5263C39.1016 42 42 39.1016 42 35.5263V7.47368C42 3.89837 39.1016 1 35.5263 1Z" fill="#5A4203" fill-opacity="0.47"/>
<g clip-path="url(#clip0_2_27)">
<path fill-rule="evenodd" clip-rule="evenodd" d="M10.7105 10.7105H32.2895V32.2895H10.7105V10.7105V10.7105Z" fill="#F7DF1E" fill-opacity="0.62"/>
<path fill-rule="evenodd" clip-rule="evenodd" d="M16.3844 28.7435L18.0358 27.7441C18.3544 28.3089 18.6442 28.7869 19.3393 28.7869C20.0057 28.7869 20.4258 28.5262 20.4258 27.5123V20.6174H22.4537V27.541C22.4537 29.6414 21.2225 30.5974 19.4263 30.5974C17.8041 30.5974 16.8624 29.7572 16.3844 28.7433" fill="black"/>
<path fill-rule="evenodd" clip-rule="evenodd" d="M23.5551 28.5262L25.2063 27.5702C25.6409 28.28 26.2059 28.8014 27.2053 28.8014C28.0455 28.8014 28.5813 28.3813 28.5813 27.8019C28.5813 27.1066 28.0309 26.8603 27.1039 26.4549L26.597 26.2375C25.1339 25.6147 24.1634 24.8325 24.1634 23.1812C24.1634 21.6603 25.3222 20.5014 27.1329 20.5014C28.4221 20.5014 29.3491 20.9505 30.0154 22.1238L28.4365 23.1377C28.0888 22.5149 27.7123 22.2687 27.1329 22.2687C26.539 22.2687 26.1624 22.6453 26.1624 23.1377C26.1624 23.7461 26.539 23.9924 27.4081 24.369L27.915 24.5863C29.6387 25.3251 30.6093 26.0782 30.6093 27.7729C30.6093 29.5982 29.1753 30.5975 27.2488 30.5975C25.3657 30.5975 24.1489 29.6995 23.5551 28.5262" fill="black"/>
</g>
<path d="M35.9054 1H7.09459C3.72864 1 1 3.65684 1 6.93421V34.9868C1 38.2642 3.72864 40.9211 7.09459 40.9211H35.9054C39.2714 40.9211 42 38.2642 42 34.9868V6.93421C42 3.65684 39.2714 1 35.9054 1Z" stroke="url(#paint0_linear_2_27)" stroke-opacity="0.15"/>
<defs>
<linearGradient id="paint0_linear_2_27" x1="21.5" y1="0.460526" x2="21.5" y2="41.4605" gradientUnits="userSpaceOnUse">
<stop stop-color="white"/>
<stop offset="1" stop-color="white" stop-opacity="0"/>
</linearGradient>
<clipPath id="clip0_2_27">
<rect x="10.7105" y="10.7105" width="21.5789" height="21.5789" rx="1" fill="white"/>
</clipPath>
</defs>
</svg>
