<svg width="38" height="38" viewBox="0 0 38 38" fill="none" xmlns="http://www.w3.org/2000/svg">
<rect width="38" height="38" rx="6" fill="#00A044" fill-opacity="0.2"/>
<rect x="0.5" y="0.5" width="37" height="37" rx="5.5" stroke="url(#paint0_linear_1119_3466)" stroke-opacity="0.1"/>
<g filter="url(#filter0_d_1119_3466)">
<path d="M21.0463 9.67496C20.0575 8.47987 19.2061 7.2661 19.0322 7.01401C19.0139 6.99533 18.9864 6.99533 18.9681 7.01401C18.7941 7.2661 17.9427 8.47987 16.954 9.67496C8.46733 20.7016 18.2906 28.143 18.2906 28.143L18.373 28.199C18.4462 29.3474 18.6293 31 18.6293 31H18.9955H19.3617C19.3617 31 19.5448 29.3567 19.6181 28.199L19.7005 28.1336C19.7096 28.143 29.5329 20.7016 21.0463 9.67496ZM18.9955 27.9749C18.9955 27.9749 18.5561 27.5921 18.4371 27.3961V27.3773L18.9681 15.3704C18.9681 15.333 19.023 15.333 19.023 15.3704L19.554 27.3773V27.3961C19.435 27.5921 18.9955 27.9749 18.9955 27.9749Z" fill="#00ED64"/>
</g>
<defs>
<filter id="filter0_d_1119_3466" x="9.5" y="5" width="19" height="32" filterUnits="userSpaceOnUse" color-interpolation-filters="sRGB">
<feFlood flood-opacity="0" result="BackgroundImageFix"/>
<feColorMatrix in="SourceAlpha" type="matrix" values="0 0 0 0 0 0 0 0 0 0 0 0 0 0 0 0 0 0 127 0" result="hardAlpha"/>
<feOffset dy="2"/>
<feGaussianBlur stdDeviation="2"/>
<feComposite in2="hardAlpha" operator="out"/>
<feColorMatrix type="matrix" values="0 0 0 0 0 0 0 0 0 0 0 0 0 0 0 0 0 0 0.25 0"/>
<feBlend mode="normal" in2="BackgroundImageFix" result="effect1_dropShadow_1119_3466"/>
<feBlend mode="normal" in="SourceGraphic" in2="effect1_dropShadow_1119_3466" result="shape"/>
</filter>
<linearGradient id="paint0_linear_1119_3466" x1="19" y1="0" x2="19" y2="38" gradientUnits="userSpaceOnUse">
<stop stop-color="white"/>
<stop offset="1" stop-color="white" stop-opacity="0"/>
</linearGradient>
</defs>
</svg>
