<svg width="38" height="38" viewBox="0 0 38 38" fill="none" xmlns="http://www.w3.org/2000/svg">
<g clip-path="url(#clip0_8_159)">
<path d="M32 0H6C2.68629 0 0 2.68629 0 6V32C0 35.3137 2.68629 38 6 38H32C35.3137 38 38 35.3137 38 32V6C38 2.68629 35.3137 0 32 0Z" fill="#00A044" fill-opacity="0.2"/>
<path d="M32 0.5H6C2.96243 0.5 0.5 2.96243 0.5 6V32C0.5 35.0376 2.96243 37.5 6 37.5H32C35.0376 37.5 37.5 35.0376 37.5 32V6C37.5 2.96243 35.0376 0.5 32 0.5Z" stroke="url(#paint0_linear_8_159)" stroke-opacity="0.1"/>
<path fill-rule="evenodd" clip-rule="evenodd" d="M19.0177 28.7294C18.7491 28.7294 18.4983 28.6577 18.2655 28.5324L15.8835 27.1175C15.5253 26.9205 15.7044 26.8488 15.8118 26.813C16.2954 26.6518 16.3849 26.616 16.8864 26.3294C16.9401 26.2936 17.0118 26.3115 17.0655 26.3474L18.8923 27.4399C18.964 27.4757 19.0535 27.4757 19.1073 27.4399L26.2533 23.3027C26.325 23.2668 26.3608 23.1952 26.3608 23.1057V14.8492C26.3608 14.7596 26.325 14.688 26.2533 14.6521L19.1073 10.5328C19.0356 10.497 18.9461 10.497 18.8923 10.5328L11.7463 14.6521C11.6746 14.688 11.6388 14.7775 11.6388 14.8492V23.1057C11.6388 23.1773 11.6746 23.2668 11.7463 23.3027L13.6984 24.431C14.7551 24.9683 15.4178 24.3414 15.4178 23.7146V15.5656C15.4178 15.4581 15.5074 15.3506 15.6327 15.3506H16.5461C16.6536 15.3506 16.761 15.4402 16.761 15.5656V23.7146C16.761 25.1295 15.9909 25.9533 14.6477 25.9533C14.2357 25.9533 13.9134 25.9533 13 25.5056L11.1194 24.431C10.6537 24.1623 10.3672 23.6609 10.3672 23.1236V14.8671C10.3672 14.3298 10.6537 13.8283 11.1194 13.5596L18.2655 9.42243C18.7132 9.17169 19.3222 9.17169 19.7699 9.42243L26.916 13.5596C27.3817 13.8283 27.6682 14.3298 27.6682 14.8671V23.1236C27.6682 23.6609 27.3817 24.1623 26.916 24.431L19.7699 28.5682C19.5371 28.6757 19.2684 28.7294 19.0177 28.7294ZM21.2206 23.0519C18.0864 23.0519 17.4416 21.6191 17.4416 20.4012C17.4416 20.2938 17.5312 20.1863 17.6565 20.1863H18.5879C18.6953 20.1863 18.7849 20.258 18.7849 20.3654C18.9282 21.3147 19.3401 21.7803 21.2385 21.7803C22.743 21.7803 23.3877 21.44 23.3877 20.6341C23.3877 20.1684 23.2086 19.8281 20.8624 19.5953C18.9102 19.3983 17.6924 18.9684 17.6924 17.4103C17.6924 15.9596 18.9102 15.0999 20.952 15.0999C23.2445 15.0999 24.3728 15.8879 24.5161 17.6073C24.5161 17.661 24.4982 17.7147 24.4623 17.7685C24.4265 17.8043 24.3728 17.8401 24.3191 17.8401H23.3877C23.2982 17.8401 23.2086 17.7685 23.1907 17.6789C22.9758 16.6939 22.4206 16.3715 20.952 16.3715C19.3043 16.3715 19.1073 16.9446 19.1073 17.3745C19.1073 17.8938 19.3401 18.055 21.5609 18.3416C23.7639 18.6282 24.8026 19.0401 24.8026 20.5803C24.7847 22.1564 23.4952 23.0519 21.2206 23.0519Z" fill="#539E43"/>
</g>
<defs>
<linearGradient id="paint0_linear_8_159" x1="19" y1="-1.33909e-08" x2="19" y2="38" gradientUnits="userSpaceOnUse">
<stop stop-color="white"/>
<stop offset="1" stop-color="white" stop-opacity="0"/>
</linearGradient>
<clipPath id="clip0_8_159">
<rect width="38" height="38" fill="white"/>
</clipPath>
</defs>
</svg>
