<svg width="38" height="38" viewBox="0 0 38 38" fill="none" xmlns="http://www.w3.org/2000/svg">
<path d="M32 0H6C2.68629 0 0 2.68629 0 6V32C0 35.3137 2.68629 38 6 38H32C35.3137 38 38 35.3137 38 32V6C38 2.68629 35.3137 0 32 0Z" fill="#3178C6" fill-opacity="0.2"/>
<path d="M32 0.5H6C2.96243 0.5 0.5 2.96243 0.5 6V32C0.5 35.0376 2.96243 37.5 6 37.5H32C35.0376 37.5 37.5 35.0376 37.5 32V6C37.5 2.96243 35.0376 0.5 32 0.5Z" stroke="url(#paint0_linear_3_33)" stroke-opacity="0.15"/>
<path fill-rule="evenodd" clip-rule="evenodd" d="M29.9418 21.7775C29.8096 21.3714 29.4632 21.0886 29.0152 21.0207C28.804 20.9887 28.5621 21.0023 28.2758 21.0622C27.7769 21.1666 27.4068 21.2063 27.1366 21.214C28.1563 19.4683 28.9854 17.4774 29.4627 15.6034C30.2345 12.5733 29.8221 11.1929 29.3401 10.5684C28.0646 8.91576 26.2037 8.02787 23.9585 8.00066C22.761 7.98583 21.7095 8.22562 21.1611 8.39801C20.6504 8.30671 20.1013 8.25568 19.5251 8.24623C18.4452 8.22877 17.491 8.46748 16.6756 8.95811C16.2241 8.80338 15.4998 8.58518 14.6631 8.44589C12.6954 8.1183 11.1095 8.37359 9.94952 9.20456C8.54486 10.2107 7.89366 11.9588 8.01411 14.4003C8.05231 15.1755 8.47997 17.534 9.15327 19.7708C9.54024 21.0565 9.95288 22.1241 10.3797 22.9444C10.985 24.1075 11.6327 24.7924 12.3598 25.0384C12.7674 25.1761 13.5079 25.2725 14.2868 24.6148C14.3855 24.736 14.5172 24.8565 14.692 24.9683C14.914 25.1103 15.1854 25.2263 15.4565 25.295C16.4335 25.5427 17.3486 25.4808 18.1293 25.1337C18.1341 25.2744 18.1378 25.409 18.141 25.5251C18.1462 25.7136 18.1512 25.8983 18.1581 26.0711C18.2043 27.2394 18.2827 28.1478 18.5149 28.7833C18.5277 28.8183 18.5448 28.8716 18.563 28.928C18.6788 29.2878 18.8726 29.89 19.3654 30.3617C19.8759 30.8502 20.4933 31.0001 21.0587 31C21.3423 31 21.6129 30.9623 21.8502 30.9107C22.6962 30.7269 23.6569 30.4468 24.3519 29.4433C25.009 28.4946 25.3284 27.0658 25.3862 24.8144C25.3937 24.7508 25.4006 24.69 25.4073 24.632C25.4118 24.5929 25.4164 24.553 25.421 24.5131L25.5758 24.5269L25.6157 24.5296C26.4773 24.5694 27.5309 24.3841 28.1779 24.0794C28.6892 23.8387 30.3275 22.9617 29.9418 21.7775" fill="black"/>
<path fill-rule="evenodd" clip-rule="evenodd" d="M28.3983 21.9969C25.7207 22.5309 25.5366 21.6544 25.5366 21.6544C28.3638 17.5985 29.5456 12.4501 28.5257 11.19C25.7433 7.75287 20.9268 9.37842 20.8464 9.42062L20.8206 9.4251C20.2915 9.31893 19.6995 9.25568 19.0341 9.24518C17.8225 9.22598 16.9035 9.55228 16.2061 10.0636C16.2061 10.0636 7.61391 6.64135 8.01352 14.3677C8.09853 16.0114 10.4502 26.8048 13.2553 23.5447C14.2805 22.3526 15.2711 21.3446 15.2711 21.3446C15.7631 21.6607 16.3521 21.8218 16.9696 21.7639L17.0176 21.7246C17.0027 21.8726 17.0095 22.0174 17.0368 22.1887C16.3142 22.9693 16.5265 23.1064 15.082 23.3939C13.6203 23.6851 14.479 24.2036 15.0396 24.3392C15.7193 24.5035 17.2917 24.7363 18.3541 23.2983L18.3118 23.4624C18.5949 23.6816 18.7937 24.8886 18.7604 25.9826C18.7271 27.0767 18.7048 27.8279 18.9279 28.4146C19.151 29.0013 19.3733 30.3214 21.2723 29.928C22.8591 29.5992 23.6814 28.7473 23.7958 27.3261C23.877 26.3158 24.0607 26.4652 24.0723 25.5619L24.2196 25.1343C24.3895 23.7647 24.2466 23.3229 25.2242 23.5284L25.4618 23.5485C26.1813 23.5802 27.123 23.4366 27.6757 23.1883C28.8659 22.6543 29.5717 21.7627 28.3982 21.9969H28.3983" fill="#336791"/>
<path fill-rule="evenodd" clip-rule="evenodd" d="M17.0687 15.0166C16.6773 14.9747 16.3228 15.0135 16.1434 15.118C16.0425 15.1769 16.0113 15.245 16.0029 15.292C15.9804 15.4163 16.0935 15.5537 16.1629 15.6245C16.3595 15.8252 16.6467 15.9631 16.931 15.9935C16.9722 15.9979 17.0131 16 17.0538 16C17.5279 16 17.9588 15.7158 17.9968 15.506C18.0443 15.2432 17.549 15.0681 17.0687 15.0166" fill="white"/>
<path fill-rule="evenodd" clip-rule="evenodd" d="M23.9989 15.2694H23.9989C23.9784 15.0305 23.717 14.9624 23.469 15.0185C23.2213 15.0747 22.9811 15.2565 23.0012 15.4959C23.0173 15.6822 23.2239 16.0001 23.4686 16C23.4893 16 23.5101 15.9978 23.5311 15.993C23.6945 15.9562 23.8143 15.7875 23.8712 15.6902C23.958 15.5421 24.0081 15.3768 23.9989 15.2694" fill="white"/>
<path fill-rule="evenodd" clip-rule="evenodd" d="M29.3224 21.8835C29.2224 21.581 28.9004 21.4836 28.3655 21.5941C26.7772 21.9219 26.2084 21.6948 26.0216 21.5573C27.2562 19.6766 28.2718 17.4032 28.8196 15.2821C29.0792 14.2774 29.2226 13.3443 29.2343 12.5838C29.2472 11.7489 29.1051 11.1355 28.8118 10.7608C27.6295 9.25015 25.8945 8.43984 23.7941 8.41757C22.3502 8.40135 21.1302 8.77091 20.8937 8.8748C20.3956 8.75094 19.8526 8.6749 19.2616 8.6652C18.1776 8.64767 17.2406 8.90719 16.4649 9.43613C16.1279 9.31075 15.257 9.01181 14.1921 8.84027C12.3509 8.54378 10.8878 8.76841 9.84372 9.5081C8.59788 10.3907 8.02273 11.9685 8.13418 14.1974C8.17168 14.9474 8.59892 17.2543 9.27327 19.4636C10.1609 22.3714 11.1257 24.0176 12.1409 24.3562C12.2597 24.3958 12.3967 24.4236 12.5478 24.4236C12.9181 24.4236 13.3721 24.2566 13.8445 23.6887C14.6292 22.7447 15.3618 21.9537 15.6318 21.6663C16.0309 21.8806 16.4692 22.0001 16.9177 22.0121C16.9185 22.0239 16.9197 22.0356 16.9207 22.0473C16.8308 22.154 16.757 22.2475 16.6941 22.3274C16.3834 22.7217 16.3187 22.8038 15.3186 23.0098C15.0342 23.0685 14.2785 23.2242 14.2675 23.7538C14.2555 24.3324 15.1606 24.5755 15.2638 24.6012C15.6232 24.6912 15.9693 24.7356 16.2995 24.7356C17.1026 24.7355 17.8092 24.4716 18.374 23.961C18.3566 26.0239 18.4426 28.0567 18.6903 28.6761C18.8931 29.1831 19.3887 30.4222 20.9542 30.4221C21.1839 30.4221 21.4367 30.3954 21.7149 30.3358C23.3486 29.9855 24.0581 29.2635 24.3326 27.6715C24.4794 26.8207 24.7315 24.7891 24.85 23.6993C25.1002 23.7773 25.4223 23.8131 25.7704 23.813C26.4966 23.813 27.3345 23.6587 27.86 23.4148C28.4503 23.1407 29.5156 22.4679 29.3224 21.8835V21.8835V21.8835ZM25.4317 14.5194C25.4263 14.8412 25.382 15.1332 25.335 15.4381C25.2846 15.766 25.2323 16.105 25.2192 16.5165C25.2062 16.917 25.2562 17.3334 25.3046 17.736C25.4023 18.5493 25.5026 19.3866 25.1143 20.2129C25.054 20.1057 24.9957 19.9888 24.9423 19.8593C24.8941 19.7423 24.7893 19.5544 24.6443 19.2943C24.0798 18.282 22.7579 15.9114 23.4346 14.9441C23.6361 14.6561 24.1476 14.3601 25.4317 14.5194V14.5194V14.5194ZM23.8753 9.06907C25.7572 9.11063 27.2458 9.81465 28.2998 11.1615C29.1082 12.1945 28.218 16.8951 25.6411 20.9503C25.6156 20.918 25.5897 20.8853 25.5629 20.8518C25.5522 20.8384 25.5413 20.8248 25.5303 20.811C26.1962 19.7113 26.066 18.6232 25.9501 17.6585C25.9025 17.2626 25.8575 16.8886 25.8689 16.5374C25.8808 16.1651 25.93 15.8458 25.9776 15.5371C26.0361 15.1566 26.0957 14.7629 26.0792 14.2988C26.0915 14.2501 26.0964 14.1926 26.09 14.1244C26.0481 13.6793 25.54 12.3474 24.5043 11.1418C23.9379 10.4825 23.1117 9.74456 21.9838 9.24686C22.469 9.14631 23.1325 9.05253 23.8753 9.06907V9.06907V9.06907ZM13.3446 23.2731C12.8242 23.8988 12.4647 23.7789 12.3466 23.7395C11.5764 23.4826 10.6829 21.8549 9.89503 19.2738C9.21333 17.0405 8.81493 14.7947 8.78343 14.1649C8.68387 12.1733 9.16665 10.7852 10.2184 10.0393C11.9301 8.82546 14.7443 9.55201 15.8751 9.92053C15.8588 9.93654 15.8419 9.95156 15.8258 9.96783C13.9702 11.8419 14.0143 15.0437 14.0188 15.2393C14.0186 15.3149 14.025 15.4218 14.0337 15.5688C14.0656 16.1073 14.125 17.1096 13.9663 18.2447C13.8187 19.2994 14.1439 20.3318 14.8582 21.0771C14.9321 21.1542 15.0093 21.2267 15.089 21.2948C14.7711 21.6353 14.0801 22.3883 13.3446 23.2731V23.2731V23.2731ZM15.3276 20.6273C14.7518 20.0266 14.4904 19.1911 14.6101 18.3347C14.7778 17.1357 14.7159 16.0914 14.6826 15.5304C14.678 15.4519 14.6739 15.3831 14.6714 15.3288C14.9425 15.0885 16.1987 14.4153 17.0946 14.6206C17.5035 14.7143 17.7525 14.9926 17.8561 15.4715C18.3921 17.9505 17.927 18.9838 17.5534 19.814C17.4763 19.9851 17.4036 20.1468 17.3414 20.3141L17.2933 20.4434C17.1713 20.7703 17.0579 21.0743 16.9876 21.3629C16.3756 21.3611 15.7803 21.0997 15.3276 20.6273V20.6273V20.6273ZM15.4215 23.9706C15.2428 23.9259 15.0821 23.8484 14.9878 23.7841C15.0665 23.747 15.2067 23.6966 15.4498 23.6465C16.6263 23.4043 16.808 23.2334 17.2048 22.7296C17.2958 22.6141 17.3989 22.4832 17.5417 22.3237C17.5417 22.3236 17.5418 22.3235 17.5418 22.3235C17.7546 22.0853 17.8518 22.1257 18.0283 22.1989C18.1713 22.2581 18.3105 22.4373 18.367 22.6345C18.3937 22.7277 18.4237 22.9045 18.3255 23.042C17.4967 24.2025 16.2889 24.1876 15.4215 23.9706V23.9706V23.9706ZM21.5786 29.7002C20.1393 30.0086 19.6297 29.2742 19.2939 28.4347C19.0772 27.8927 18.9707 25.4486 19.0462 22.7496C19.0472 22.7137 19.0421 22.679 19.0322 22.6464C19.0236 22.5834 19.0103 22.5198 18.992 22.4557C18.8795 22.0629 18.6057 21.7344 18.2771 21.5983C18.1466 21.5442 17.9069 21.4449 17.619 21.5186C17.6804 21.2656 17.7869 20.9799 17.9023 20.6705L17.9508 20.5404C18.0053 20.3937 18.0737 20.2417 18.1461 20.0809C18.5372 19.2121 19.0727 18.0222 18.4915 15.3341C18.2737 14.3272 17.5467 13.8356 16.4446 13.9497C15.7838 14.0181 15.1793 14.2847 14.8778 14.4376C14.813 14.4704 14.7537 14.5022 14.6983 14.5331C14.7824 13.5186 15.1004 11.6228 16.2897 10.4233C17.0385 9.66811 18.0358 9.29516 19.2508 9.31524C21.6449 9.35446 23.1802 10.5831 24.0466 11.6069C24.7932 12.4892 25.1975 13.3779 25.3588 13.8572C24.1455 13.7338 23.3202 13.9734 22.9019 14.5714C21.9918 15.8723 23.3998 18.3974 24.0765 19.6109C24.2005 19.8333 24.3077 20.0255 24.3414 20.1072C24.5617 20.6412 24.847 20.9978 25.0553 21.2581C25.1191 21.3378 25.1811 21.4151 25.2282 21.4827C24.8607 21.5887 24.2006 21.8334 24.2607 23.057C24.2122 23.671 23.8672 26.5455 23.6919 27.5611C23.4606 28.9028 22.9669 29.4025 21.5786 29.7002V29.7002V29.7002ZM27.5863 22.8252C27.2105 22.9996 26.5816 23.1305 25.9842 23.1585C25.3244 23.1894 24.9885 23.0846 24.9095 23.0202C24.8724 22.2577 25.1562 22.178 25.4566 22.0936C25.5038 22.0803 25.5498 22.0675 25.5943 22.0519C25.6219 22.0744 25.6522 22.0967 25.6853 22.1186C26.2156 22.4686 27.1616 22.5064 28.497 22.2308C28.5019 22.2297 28.5068 22.2288 28.5116 22.2278C28.3315 22.3962 28.0233 22.6222 27.5863 22.8252V22.8252V22.8252Z" fill="white"/>
<defs>
<linearGradient id="paint0_linear_3_33" x1="19" y1="-1.33909e-08" x2="19" y2="38" gradientUnits="userSpaceOnUse">
<stop stop-color="white"/>
<stop offset="1" stop-color="white" stop-opacity="0"/>
</linearGradient>
</defs>
</svg>
