<svg width="38" height="38" viewBox="0 0 38 38" fill="none" xmlns="http://www.w3.org/2000/svg">
<path d="M32 0H6C2.68629 0 0 2.68629 0 6V32C0 35.3137 2.68629 38 6 38H32C35.3137 38 38 35.3137 38 32V6C38 2.68629 35.3137 0 32 0Z" fill="#3178C6" fill-opacity="0.2"/>
<path d="M32 0.5H6C2.96243 0.5 0.5 2.96243 0.5 6V32C0.5 35.0376 2.96243 37.5 6 37.5H32C35.0376 37.5 37.5 35.0376 37.5 32V6C37.5 2.96243 35.0376 0.5 32 0.5Z" stroke="url(#paint0_linear_3_33)" stroke-opacity="0.15"/>
<g clip-path="url(#clip0_3_33)">
<path d="M18.904 9.07812C13.839 9.07813 14.1553 11.2746 14.1553 11.2746L14.1609 13.5502H18.9944V14.2334H12.2411C12.2411 14.2334 9 13.8658 9 18.9765C9 24.0871 11.8289 23.9059 11.8289 23.9059H13.5172V21.5344C13.5172 21.5344 13.4262 18.7055 16.301 18.7055H21.0949C21.0949 18.7055 23.7883 18.749 23.7883 16.1024V11.7263C23.7883 11.7263 24.1972 9.07812 18.904 9.07812ZM16.2388 10.6083C16.7197 10.6083 17.1084 10.997 17.1084 11.4779C17.1084 11.9588 16.7197 12.3475 16.2388 12.3475C15.758 12.3475 15.3693 11.9588 15.3693 11.4779C15.3693 10.997 15.758 10.6083 16.2388 10.6083Z" fill="url(#paint1_linear_3_33)"/>
<path d="M19.0479 28.9261C24.1129 28.9261 23.7966 26.7296 23.7966 26.7296L23.7909 24.454H18.9575V23.7708H25.7108C25.7108 23.7708 28.9519 24.1384 28.9519 19.0277C28.9519 13.9171 26.123 14.0983 26.123 14.0983H24.4346V16.4698C24.4346 16.4698 24.5256 19.2988 21.6509 19.2988H16.857C16.857 19.2988 14.1636 19.2552 14.1636 21.9018V26.2779C14.1636 26.2779 13.7547 28.9261 19.0479 28.9261ZM21.713 27.3959C21.2321 27.3959 20.8434 27.0072 20.8434 26.5263C20.8434 26.0454 21.2321 25.6567 21.713 25.6567C22.1939 25.6567 22.5826 26.0454 22.5826 26.5263C22.5826 27.0072 22.1939 27.3959 21.713 27.3959Z" fill="url(#paint2_linear_3_33)"/>
</g>
<defs>
<linearGradient id="paint0_linear_3_33" x1="19" y1="-1.33909e-08" x2="19" y2="38" gradientUnits="userSpaceOnUse">
<stop stop-color="white"/>
<stop offset="1" stop-color="white" stop-opacity="0"/>
</linearGradient>
<linearGradient id="paint1_linear_3_33" x1="10.9174" y1="10.8634" x2="20.8048" y2="20.6522" gradientUnits="userSpaceOnUse">
<stop stop-color="#387EB8"/>
<stop offset="1" stop-color="#366994"/>
</linearGradient>
<linearGradient id="paint2_linear_3_33" x1="16.9863" y1="17.1491" x2="27.6043" y2="27.1867" gradientUnits="userSpaceOnUse">
<stop stop-color="#FFE052"/>
<stop offset="1" stop-color="#FFC331"/>
</linearGradient>
<clipPath id="clip0_3_33">
<rect width="20" height="20" fill="white" transform="translate(9 9)"/>
</clipPath>
</defs>
</svg>
