<svg width="38" height="38" viewBox="0 0 38 38" fill="none" xmlns="http://www.w3.org/2000/svg">
<rect width="38" height="38" rx="6" fill="#087EA4" fill-opacity="0.2"/>
<rect x="0.5" y="0.5" width="37" height="37" rx="5.5" stroke="url(#paint0_linear_1119_3403)" stroke-opacity="0.15"/>
<g filter="url(#filter0_d_1119_3403)">
<path fill-rule="evenodd" clip-rule="evenodd" d="M23.5239 11.1649C24.2855 11.6046 24.7047 12.7878 24.5179 14.6356C24.506 14.7534 24.4917 14.8732 24.4749 14.9947C23.6167 14.733 22.6667 14.532 21.6537 14.4033C21.036 13.5907 20.3871 12.8686 19.7315 12.2563C19.8284 12.181 19.925 12.1087 20.0212 12.0394C21.528 10.9537 22.7624 10.7252 23.5239 11.1649ZM18.9997 11.6208C18.8447 11.4962 18.6897 11.3782 18.5352 11.2668C16.9753 10.143 15.2879 9.59651 13.9996 10.3403C12.7113 11.0841 12.3408 12.8187 12.5342 14.7316C12.5534 14.921 12.5781 15.1142 12.6085 15.3108C12.4233 15.3827 12.2437 15.4578 12.0702 15.5358C10.317 16.3248 9 17.513 9 19.0005C9 20.4881 10.317 21.6763 12.0702 22.4653C12.2438 22.5434 12.4235 22.6185 12.6089 22.6905C12.5786 22.8869 12.5538 23.08 12.5347 23.2694C12.3413 25.1822 12.7118 26.9168 14.0001 27.6606C15.2884 28.4044 16.9758 27.858 18.5357 26.7341C18.6901 26.6229 18.8448 26.5049 18.9997 26.3805C19.1547 26.505 19.3096 26.623 19.464 26.7343C21.0239 27.8582 22.7113 28.4046 23.9996 27.6608C25.2879 26.917 25.6584 25.1824 25.465 23.2695C25.4459 23.0802 25.4211 22.8871 25.3908 22.6906C25.5763 22.6186 25.7561 22.5434 25.9298 22.4653C27.683 21.6763 29 20.4881 29 19.0005C29 17.513 27.683 16.3248 25.9298 15.5358C25.7562 15.4577 25.5765 15.3826 25.3912 15.3107C25.4216 15.1141 25.4463 14.9208 25.4655 14.7314C25.6589 12.8185 25.2884 11.0839 24.0001 10.3401C22.7118 9.59633 21.0244 10.1428 19.4645 11.2667C19.3099 11.378 19.1549 11.4962 18.9997 11.6208ZM18.9997 12.8767C18.5522 13.2877 18.1035 13.7575 17.6639 14.2796C18.1013 14.2526 18.5474 14.2386 19 14.2386C19.4525 14.2386 19.8983 14.2525 20.3356 14.2795C19.896 13.7575 19.4473 13.2877 18.9997 12.8767ZM16.3458 14.4034C15.3329 14.5321 14.3829 14.7331 13.5248 14.9948C13.508 14.8733 13.4937 14.7536 13.4818 14.6358C13.295 12.7879 13.7142 11.6048 14.4758 11.1651C15.2373 10.7254 16.4716 10.9539 17.9785 12.0396C18.0746 12.1088 18.1712 12.1811 18.268 12.2564C17.6124 12.8686 16.9635 13.5907 16.3458 14.4034ZM15.5795 15.483C15.3374 15.8483 15.1024 16.2275 14.8762 16.6194C14.6497 17.0116 14.4387 17.405 14.2433 17.7976C14.0109 17.1556 13.8283 16.532 13.6961 15.9387C14.276 15.7565 14.9073 15.6028 15.5795 15.483ZM14.7288 19.001C15.0082 18.3724 15.3325 17.7338 15.7009 17.0956C16.0693 16.4577 16.46 15.8578 16.8645 15.3018C17.5484 15.2295 18.2633 15.191 19 15.191C19.7366 15.191 20.4513 15.2295 21.1351 15.3017C21.5396 15.8579 21.9304 16.4578 22.2987 17.0958C22.6672 17.734 22.9914 18.3725 23.2708 19.001C22.9915 19.6292 22.6675 20.2673 22.2992 20.9051C21.9308 21.5432 21.54 22.1432 21.1355 22.6993C20.4516 22.7716 19.7367 22.8101 19 22.8101C18.2631 22.8101 17.5481 22.7716 16.8641 22.6993C16.4596 22.1432 16.0688 21.5433 15.7005 20.9053C15.3322 20.2675 15.0081 19.6293 14.7288 19.001ZM13.6914 19.001C13.2965 18.0595 12.9955 17.1363 12.793 16.2623C12.6796 16.3084 12.5689 16.3558 12.4611 16.4043C10.7674 17.1665 9.95238 18.1212 9.95238 19.0005C9.95238 19.8799 10.7674 20.8346 12.4611 21.5968C12.569 21.6453 12.6799 21.6928 12.7934 21.739C12.9958 20.8652 13.2967 19.9423 13.6914 19.001ZM13.6966 22.0625C13.8286 21.4695 14.0111 20.8462 14.2433 20.2045C14.4386 20.5967 14.6495 20.9897 14.8757 21.3815C15.102 21.7734 15.337 22.1527 15.5791 22.518C14.9072 22.3983 14.2762 22.2447 13.6966 22.0625ZM13.5252 23.0064C13.5085 23.1278 13.4941 23.2474 13.4822 23.3651C13.2954 25.213 13.7147 26.3962 14.4763 26.8358C15.2378 27.2755 16.4721 27.047 17.979 25.9614C18.0749 25.8922 18.1713 25.8201 18.268 25.745C17.6122 25.1326 16.9632 24.4104 16.3454 23.5977C15.3328 23.469 14.3832 23.2681 13.5252 23.0064ZM19.7315 25.745C19.8283 25.8202 19.9247 25.8924 20.0207 25.9615C21.5276 27.0472 22.7619 27.2757 23.5234 26.836C24.285 26.3963 24.7042 25.2132 24.5175 23.3653C24.5056 23.2476 24.4912 23.1279 24.4745 23.0065C23.6165 23.2682 22.6667 23.469 21.6541 23.5977C21.0363 24.4105 20.3872 25.1327 19.7315 25.745ZM20.336 23.7215C19.8962 24.2437 19.4475 24.7136 18.9997 25.1246C18.552 24.7136 18.1033 24.2437 17.6636 23.7215C18.1011 23.7485 18.5473 23.7625 19 23.7625C19.4526 23.7625 19.8986 23.7485 20.336 23.7215ZM22.4205 22.5181C23.0923 22.3984 23.7234 22.2448 24.3031 22.0626C24.171 21.4696 23.9885 20.8462 23.7563 20.2045C23.5611 20.5966 23.3502 20.9896 23.124 21.3813C22.8977 21.7733 22.6626 22.1527 22.4205 22.5181ZM24.3082 19.001C24.703 19.9423 25.0039 20.8653 25.2063 21.7391C25.3199 21.6929 25.4309 21.6454 25.5389 21.5968C27.2326 20.8346 28.0476 19.8799 28.0476 19.0005C28.0476 18.1212 27.2326 17.1665 25.5389 16.4043C25.431 16.3558 25.3202 16.3083 25.2067 16.2621C25.0042 17.1363 24.7032 18.0595 24.3082 19.001ZM24.3035 15.9386C23.7236 15.7564 23.0922 15.6027 22.42 15.4829C22.6621 15.8483 22.8972 16.2276 23.1235 16.6196C23.3499 17.0117 23.561 17.4051 23.7564 17.7976C23.9888 17.1556 24.1714 16.5319 24.3035 15.9386ZM20.9047 18.9999C20.9047 20.0518 20.0519 20.9046 19 20.9046C17.948 20.9046 17.0952 20.0518 17.0952 18.9999C17.0952 17.9479 17.948 17.0951 19 17.0951C20.0519 17.0951 20.9047 17.9479 20.9047 18.9999Z" fill="white"/>
</g>
<defs>
<filter id="filter0_d_1119_3403" x="5" y="9.99902" width="28" height="26.0029" filterUnits="userSpaceOnUse" color-interpolation-filters="sRGB">
<feFlood flood-opacity="0" result="BackgroundImageFix"/>
<feColorMatrix in="SourceAlpha" type="matrix" values="0 0 0 0 0 0 0 0 0 0 0 0 0 0 0 0 0 0 127 0" result="hardAlpha"/>
<feOffset dy="4"/>
<feGaussianBlur stdDeviation="2"/>
<feComposite in2="hardAlpha" operator="out"/>
<feColorMatrix type="matrix" values="0 0 0 0 0 0 0 0 0 0 0 0 0 0 0 0 0 0 0.25 0"/>
<feBlend mode="normal" in2="BackgroundImageFix" result="effect1_dropShadow_1119_3403"/>
<feBlend mode="normal" in="SourceGraphic" in2="effect1_dropShadow_1119_3403" result="shape"/>
</filter>
<linearGradient id="paint0_linear_1119_3403" x1="19" y1="0" x2="19" y2="38" gradientUnits="userSpaceOnUse">
<stop stop-color="white"/>
<stop offset="1" stop-color="white" stop-opacity="0"/>
</linearGradient>
</defs>
</svg>
