<svg width="38" height="38" viewBox="0 0 38 38" fill="none" xmlns="http://www.w3.org/2000/svg">
<rect width="38" height="38" rx="6" fill="#3178C6" fill-opacity="0.2"/>
<rect x="0.5" y="0.5" width="37" height="37" rx="5.5" stroke="url(#paint0_linear_1119_3440)" stroke-opacity="0.15"/>
<path fill-rule="evenodd" clip-rule="evenodd" d="M9.75 9H28.25C28.6642 9 29 9.33579 29 9.75V28.25C29 28.6642 28.6642 29 28.25 29H9.75C9.33579 29 9 28.6642 9 28.25V9.75C9 9.33579 9.33579 9 9.75 9ZM20.1179 19.6403V18H13V19.6403H15.5412V26.9438H17.5642V19.6403H20.1179ZM20.9244 26.751C21.2506 26.9173 21.6365 27.0421 22.0819 27.1252C22.5273 27.2084 22.9968 27.25 23.4903 27.25C23.9713 27.25 24.4282 27.2042 24.8611 27.1128C25.294 27.0213 25.6735 26.8705 25.9997 26.6605C26.3259 26.4505 26.5842 26.1762 26.7745 25.8372C26.9648 25.4983 27.06 25.0794 27.06 24.5804C27.06 24.2186 27.0056 23.9016 26.8968 23.6292C26.7881 23.3568 26.6313 23.1146 26.4263 22.9025C26.2214 22.6905 25.9757 22.5002 25.6892 22.3318C25.4027 22.1635 25.0796 22.0044 24.72 21.8547C24.4564 21.7465 24.2201 21.6415 24.011 21.5397C23.8018 21.4378 23.6241 21.3338 23.4778 21.2278C23.3313 21.1218 23.2185 21.0095 23.139 20.891C23.0595 20.7725 23.0198 20.6384 23.0198 20.4887C23.0198 20.3515 23.0553 20.2278 23.1264 20.1176C23.1976 20.0074 23.2979 19.9128 23.4276 19.8338C23.5572 19.7548 23.7161 19.6935 23.9044 19.6498C24.0925 19.6062 24.3017 19.5843 24.5317 19.5843C24.699 19.5843 24.8757 19.5968 25.0618 19.6217C25.248 19.6467 25.4351 19.6852 25.6233 19.7371C25.8115 19.7891 25.9945 19.8545 26.1723 19.9336C26.35 20.0126 26.5142 20.1041 26.6648 20.208V18.3431C26.3594 18.2266 26.0259 18.1403 25.6641 18.0842C25.3023 18.0281 24.8872 18 24.4188 18C23.942 18 23.4903 18.0509 23.0637 18.1528C22.6371 18.2547 22.2617 18.4138 21.9376 18.63C21.6134 18.8462 21.3572 19.1217 21.1691 19.4564C20.9808 19.7912 20.8867 20.1914 20.8867 20.6571C20.8867 21.2518 21.0593 21.7591 21.4043 22.179C21.7494 22.599 22.2732 22.9545 22.9759 23.2456C23.2519 23.3579 23.5091 23.4681 23.7475 23.5762C23.9859 23.6843 24.1919 23.7966 24.3654 23.913C24.539 24.0295 24.676 24.1562 24.7764 24.2935C24.8768 24.4307 24.927 24.5866 24.927 24.7613C24.927 24.8902 24.8956 25.0098 24.8328 25.1199C24.7701 25.2302 24.6749 25.3258 24.5474 25.4068C24.4198 25.4879 24.2609 25.5514 24.0706 25.5971C23.8803 25.6428 23.6576 25.6657 23.4025 25.6657C22.9675 25.6657 22.5367 25.5898 22.1101 25.4381C21.6835 25.2863 21.2883 25.0586 20.9244 24.7551V26.751Z" fill="#3178C6"/>
<defs>
<linearGradient id="paint0_linear_1119_3440" x1="19" y1="0" x2="19" y2="38" gradientUnits="userSpaceOnUse">
<stop stop-color="white"/>
<stop offset="1" stop-color="white" stop-opacity="0"/>
</linearGradient>
</defs>
</svg>
